<svg width="100" height="100" viewBox="0 0 100 100" fill="none" xmlns="http://www.w3.org/2000/svg">
<circle cx="50" cy="50" r="50" fill="black"/>
<path d="M83.423 20.577C77.3203 14.4743 67.3905 14.4743 61.2877 20.577C58.3313 23.5334 56.7033 27.4639 56.7033 31.6447C56.7033 35.8255 58.3313 39.7561 61.2877 42.7123C62.805 44.2299 64.5795 45.3962 66.5125 46.1732C65.8332 47.1188 65.1392 47.8073 64.6161 48.1928C62.3583 49.8579 60.3577 51.8149 58.677 53.9804C58.4815 52.8099 58.1514 51.6476 57.6827 50.512C55.7126 45.7391 51.7082 42.3135 46.6959 41.1136L44.8746 40.6776C44.8394 40.5274 44.8042 40.3772 44.769 40.2249C42.7338 31.4147 35.3411 24.7555 26.373 23.6542C25.516 23.549 24.7344 24.1588 24.6292 25.0166C24.5239 25.8743 25.1339 26.6551 25.9917 26.7604C33.659 27.7021 39.9796 33.3961 41.7198 40.9294C42.5191 44.3895 43.3261 47.3555 44.1184 49.7453C44.3362 50.4022 44.9474 50.8181 45.6035 50.8181C45.7667 50.8181 45.9327 50.7923 46.0961 50.7381C46.9164 50.4662 47.3609 49.5807 47.0889 48.7604C46.6386 47.402 46.1817 45.8416 45.7227 44.0986L45.9673 44.1571C49.9916 45.1205 53.2074 47.8721 54.7899 51.7061C56.3376 55.456 56.0148 59.5684 53.9045 62.9881C53.8399 63.0927 53.774 63.1965 53.7066 63.2995C53.2329 64.0224 53.4348 64.9922 54.1577 65.4659C54.4222 65.6393 54.7196 65.7221 55.014 65.7221C55.5239 65.7221 56.0239 65.4731 56.3242 65.0148C56.4069 64.8885 56.4878 64.7611 56.5676 64.6322C57.4262 63.2409 58.0473 61.7585 58.4304 60.2306C60.2454 56.5455 63.0252 53.2548 66.4735 50.7118C67.5977 49.8831 68.747 48.5662 69.673 47.0692C70.5504 47.2199 71.4469 47.2968 72.3553 47.2968C73.4118 47.2968 74.4522 47.1925 75.4651 46.9894C74.1621 51.6833 73.0697 55.7911 72.2121 59.2254C70.2093 67.2424 64.9114 77.5094 60.2166 80.0154C59.2405 80.5365 58.3914 80.6656 57.6232 80.4088C35.0271 70.0507 30.4762 59.328 29.5683 55.1959C29.3964 54.4132 28.6653 53.8965 27.8867 53.9743C24.0996 53.018 20.8309 50.6777 18.6657 47.3665C16.4222 43.9357 15.6312 39.8234 16.4388 35.7874C16.6083 34.9399 16.0589 34.1155 15.2114 33.9459C14.3642 33.7768 13.5394 34.3258 13.37 35.1733C12.4006 40.019 13.351 44.9575 16.0464 49.0793C18.5785 52.9514 22.3728 55.7177 26.7793 56.919C27.5264 59.5092 29.22 63.1799 33.0149 67.4059C38.2579 73.2445 46.1214 78.587 56.3874 83.2852C56.4271 83.3035 56.4677 83.32 56.5088 83.3347C57.1313 83.5588 57.7686 83.6705 58.4185 83.6705C59.4799 83.6705 60.5744 83.3719 61.6903 82.7764C65.1446 80.9326 68.0874 76.5685 69.948 73.2321C72.2399 69.1222 74.1718 64.2934 75.2484 59.9838C76.2204 56.0917 77.4975 51.3229 79.0449 45.8043C80.6502 45.0446 82.1299 44.0056 83.423 42.7125C89.5257 36.6097 89.5257 26.6798 83.423 20.577ZM72.3554 44.1671C69.0105 44.1671 65.8659 42.8646 63.5007 40.4994C61.1356 38.1342 59.833 34.9896 59.833 31.6447C59.833 28.2999 61.1356 25.1551 63.5007 22.7901C65.942 20.3489 69.1487 19.1282 72.3554 19.1282C75.5621 19.1282 78.7688 20.3489 81.2101 22.7899C86.0925 27.6725 86.0927 35.617 81.2101 40.4994C78.8449 42.8646 75.7001 44.1671 72.3554 44.1671Z" fill="white"/>
<path d="M69.4563 28.7454C67.8577 30.344 67.8577 32.9453 69.4563 34.5442C70.2556 35.3434 71.3055 35.7431 72.3555 35.7431C73.4055 35.7431 74.4554 35.3434 75.2549 34.5442C76.8535 32.9454 76.8535 30.3441 75.2549 28.7455C73.6565 27.1468 71.0552 27.1468 69.4563 28.7454ZM73.042 32.3311C72.6634 32.7094 72.0477 32.7096 71.6693 32.3311C71.2908 31.9526 71.2908 31.3368 71.6693 30.9583C71.8585 30.7691 72.1072 30.6744 72.3558 30.6744C72.6043 30.6744 72.8529 30.769 73.0421 30.9583C73.4203 31.3368 73.4203 31.9526 73.042 32.3311Z" fill="white"/>
<path d="M80.3545 23.6453C75.9437 19.2345 68.7668 19.2345 64.356 23.6453C59.9451 28.0562 59.9451 35.2331 64.356 39.6439C66.5614 41.8493 69.4583 42.952 72.3553 42.952C75.2524 42.952 78.1491 41.8493 80.3547 39.6439C84.7653 35.2331 84.7653 28.0562 80.3545 23.6453ZM78.1416 37.431C74.951 40.6217 69.7596 40.6217 66.569 37.431C63.3784 34.2404 63.3784 29.049 66.569 25.8584C68.1643 24.2631 70.2598 23.4655 72.3553 23.4655C74.4509 23.4655 76.5463 24.2631 78.1416 25.8584C81.3322 29.0489 81.3322 34.2404 78.1416 37.431Z" fill="white"/>
</svg>
